<svg xmlns="http://www.w3.org/2000/svg" style="display: none;">
  <!-- NAVIGATION ICONS (8) -->
  <symbol id="icon-home" viewBox="0 0 24 24">
    <path d="M3 9l9-7 9 7v11a2 2 0 0 1-2 2H5a2 2 0 0 1-2-2z" fill="none" stroke="currentColor" stroke-width="1.8" stroke-linecap="round" stroke-linejoin="round"/>
    <polyline points="9 22 9 12 15 12 15 22" fill="none" stroke="currentColor" stroke-width="1.8" stroke-linecap="round" stroke-linejoin="round"/>
  </symbol>

  <symbol id="icon-calculator" viewBox="0 0 24 24">
    <rect x="4" y="2" width="16" height="20" rx="2" fill="none" stroke="currentColor" stroke-width="1.8" stroke-linecap="round" stroke-linejoin="round"/>
    <line x1="8" y1="6" x2="16" y2="6" stroke="currentColor" stroke-width="1.8" stroke-linecap="round"/>
    <line x1="8" y1="10" x2="16" y2="10" stroke="currentColor" stroke-width="1.8" stroke-linecap="round"/>
    <line x1="8" y1="14" x2="10" y2="14" stroke="currentColor" stroke-width="1.8" stroke-linecap="round"/>
    <line x1="8" y1="18" x2="10" y2="18" stroke="currentColor" stroke-width="1.8" stroke-linecap="round"/>
    <line x1="14" y1="14" x2="16" y2="14" stroke="currentColor" stroke-width="1.8" stroke-linecap="round"/>
    <line x1="14" y1="18" x2="16" y2="18" stroke="currentColor" stroke-width="1.8" stroke-linecap="round"/>
  </symbol>

  <symbol id="icon-orders" viewBox="0 0 24 24">
    <path d="M6 9h12M6 13h12M6 17h6M4 3h16a2 2 0 0 1 2 2v14a2 2 0 0 1-2 2H4a2 2 0 0 1-2-2V5a2 2 0 0 1 2-2z" fill="none" stroke="currentColor" stroke-width="1.8" stroke-linecap="round" stroke-linejoin="round"/>
  </symbol>

  <symbol id="icon-materials" viewBox="0 0 24 24">
    <path d="M4 7h16v10a2 2 0 0 1-2 2H6a2 2 0 0 1-2-2V7z" fill="none" stroke="currentColor" stroke-width="1.8" stroke-linecap="round" stroke-linejoin="round"/>
    <line x1="4" y1="7" x2="8" y2="3" stroke="currentColor" stroke-width="1.8" stroke-linecap="round"/>
    <line x1="20" y1="7" x2="16" y2="3" stroke="currentColor" stroke-width="1.8" stroke-linecap="round"/>
    <line x1="12" y1="7" x2="12" y2="3" stroke="currentColor" stroke-width="1.8" stroke-linecap="round"/>
  </symbol>

  <symbol id="icon-documents" viewBox="0 0 24 24">
    <path d="M13 2H6a2 2 0 0 0-2 2v16a2 2 0 0 0 2 2h12a2 2 0 0 0 2-2V9z" fill="none" stroke="currentColor" stroke-width="1.8" stroke-linecap="round" stroke-linejoin="round"/>
    <polyline points="13 2 13 9 20 9" fill="none" stroke="currentColor" stroke-width="1.8" stroke-linecap="round" stroke-linejoin="round"/>
  </symbol>

  <symbol id="icon-analytics" viewBox="0 0 24 24">
    <line x1="12" y1="2" x2="12" y2="22" stroke="currentColor" stroke-width="1.8" stroke-linecap="round"/>
    <path d="M4 12c0-2 2-4 4-4s2 2 4 2 2-2 4-2 4 2 4 4" fill="none" stroke="currentColor" stroke-width="1.8" stroke-linecap="round" stroke-linejoin="round"/>
  </symbol>

  <symbol id="icon-settings" viewBox="0 0 24 24">
    <circle cx="12" cy="12" r="3" fill="none" stroke="currentColor" stroke-width="1.8" stroke-linecap="round"/>
    <path d="M12 1v6m0 6v6M4.22 4.22l4.24 4.24M12 12l6 6m-14 0l4.24-4.24M20 12l4 4" fill="none" stroke="currentColor" stroke-width="1.8" stroke-linecap="round" stroke-linejoin="round"/>
  </symbol>

  <symbol id="icon-profile" viewBox="0 0 24 24">
    <path d="M20 21v-2a4 4 0 0 0-4-4H8a4 4 0 0 0-4 4v2" fill="none" stroke="currentColor" stroke-width="1.8" stroke-linecap="round" stroke-linejoin="round"/>
    <circle cx="12" cy="7" r="4" fill="none" stroke="currentColor" stroke-width="1.8" stroke-linecap="round"/>
  </symbol>

  <!-- FEATURE ICONS (6) -->
  <symbol id="icon-document" viewBox="0 0 24 24">
    <path d="M14 2H6a2 2 0 0 0-2 2v16a2 2 0 0 0 2 2h12a2 2 0 0 0 2-2V8z" fill="none" stroke="currentColor" stroke-width="1.8" stroke-linecap="round" stroke-linejoin="round"/>
    <polyline points="14 2 14 8 20 8" fill="none" stroke="currentColor" stroke-width="1.8" stroke-linecap="round" stroke-linejoin="round"/>
    <line x1="12" y1="11" x2="8" y2="11" stroke="currentColor" stroke-width="1.8" stroke-linecap="round"/>
    <line x1="12" y1="15" x2="8" y2="15" stroke="currentColor" stroke-width="1.8" stroke-linecap="round"/>
    <line x1="12" y1="19" x2="8" y2="19" stroke="currentColor" stroke-width="1.8" stroke-linecap="round"/>
  </symbol>

  <symbol id="icon-clock" viewBox="0 0 24 24">
    <circle cx="12" cy="12" r="10" fill="none" stroke="currentColor" stroke-width="1.8" stroke-linecap="round"/>
    <polyline points="12 6 12 12 16 14" fill="none" stroke="currentColor" stroke-width="1.8" stroke-linecap="round" stroke-linejoin="round"/>
  </symbol>

  <symbol id="icon-database" viewBox="0 0 24 24">
    <ellipse cx="12" cy="5" rx="9" ry="3" fill="none" stroke="currentColor" stroke-width="1.8" stroke-linecap="round"/>
    <path d="M3 5v14a9 3 0 0 0 18 0V5" fill="none" stroke="currentColor" stroke-width="1.8" stroke-linecap="round"/>
    <ellipse cx="12" cy="19" rx="9" ry="3" fill="none" stroke="currentColor" stroke-width="1.8" stroke-linecap="round"/>
  </symbol>

  <symbol id="icon-chart" viewBox="0 0 24 24">
    <line x1="12" y1="2" x2="12" y2="22" stroke="currentColor" stroke-width="1.8" stroke-linecap="round"/>
    <line x1="4" y1="11" x2="20" y2="11" stroke="currentColor" stroke-width="1.8" stroke-linecap="round"/>
    <path d="M7 16v-4M12 16v-2M17 16v-6" fill="none" stroke="currentColor" stroke-width="1.8" stroke-linecap="round"/>
  </symbol>

  <symbol id="icon-help" viewBox="0 0 24 24">
    <circle cx="12" cy="12" r="10" fill="none" stroke="currentColor" stroke-width="1.8" stroke-linecap="round"/>
    <path d="M12 17v.01M8 10c0-2 1.5-3 4-3 2 0 3 1 2 3 0 1-1 2-2 3" fill="none" stroke="currentColor" stroke-width="1.8" stroke-linecap="round" stroke-linejoin="round"/>
  </symbol>

  <!-- BRAND ICONS (3) - Proprietary marks -->
  <symbol id="icon-plastic" viewBox="0 0 24 24">
    <path d="M12 2c3 0 5 2 5 5v8c0 3-2 5-5 5s-5-2-5-5V7c0-3 2-5 5-5z" fill="none" stroke="currentColor" stroke-width="1.8" stroke-linecap="round" stroke-linejoin="round"/>
    <circle cx="12" cy="8" r="1.5" fill="currentColor"/>
  </symbol>

  <symbol id="icon-furniture" viewBox="0 0 24 24">
    <rect x="4" y="3" width="16" height="14" rx="1" fill="none" stroke="currentColor" stroke-width="1.8" stroke-linecap="round"/>
    <line x1="4" y1="8" x2="20" y2="8" stroke="currentColor" stroke-width="1.8" stroke-linecap="round"/>
    <line x1="4" y1="12" x2="20" y2="12" stroke="currentColor" stroke-width="1.8" stroke-linecap="round"/>
    <line x1="8" y1="17" x2="8" y2="21" stroke="currentColor" stroke-width="1.8" stroke-linecap="round"/>
    <line x1="16" y1="17" x2="16" y2="21" stroke="currentColor" stroke-width="1.8" stroke-linecap="round"/>
  </symbol>

  <symbol id="icon-metall" viewBox="0 0 24 24">
    <rect x="3" y="3" width="18" height="18" rx="1" fill="none" stroke="currentColor" stroke-width="1.8" stroke-linecap="round"/>
    <line x1="3" y1="8" x2="21" y2="8" stroke="currentColor" stroke-width="1.2" stroke-linecap="round"/>
    <line x1="3" y1="13" x2="21" y2="13" stroke="currentColor" stroke-width="1.2" stroke-linecap="round"/>
    <line x1="3" y1="18" x2="21" y2="18" stroke="currentColor" stroke-width="1.2" stroke-linecap="round"/>
    <line x1="8" y1="3" x2="8" y2="21" stroke="currentColor" stroke-width="1.2" stroke-linecap="round"/>
    <line x1="13" y1="3" x2="13" y2="21" stroke="currentColor" stroke-width="1.2" stroke-linecap="round"/>
    <line x1="18" y1="3" x2="18" y2="21" stroke="currentColor" stroke-width="1.2" stroke-linecap="round"/>
  </symbol>

  <!-- ACTION ICONS (6) -->
  <symbol id="icon-plus" viewBox="0 0 24 24">
    <line x1="12" y1="5" x2="12" y2="19" stroke="currentColor" stroke-width="1.8" stroke-linecap="round"/>
    <line x1="5" y1="12" x2="19" y2="12" stroke="currentColor" stroke-width="1.8" stroke-linecap="round"/>
  </symbol>

  <symbol id="icon-edit" viewBox="0 0 24 24">
    <path d="M11 4H4a2 2 0 0 0-2 2v14a2 2 0 0 0 2 2h14a2 2 0 0 0 2-2v-7" fill="none" stroke="currentColor" stroke-width="1.8" stroke-linecap="round" stroke-linejoin="round"/>
    <path d="M18.5 2.5a2.121 2.121 0 0 1 3 3L12 15l-4 1 1-4 9.5-9.5z" fill="none" stroke="currentColor" stroke-width="1.8" stroke-linecap="round" stroke-linejoin="round"/>
  </symbol>

  <symbol id="icon-delete" viewBox="0 0 24 24">
    <polyline points="3 6 5 6 21 6" fill="none" stroke="currentColor" stroke-width="1.8" stroke-linecap="round" stroke-linejoin="round"/>
    <path d="M19 6v14a2 2 0 0 1-2 2H7a2 2 0 0 1-2-2V6m3 0V4a2 2 0 0 1 2-2h4a2 2 0 0 1 2 2v2" fill="none" stroke="currentColor" stroke-width="1.8" stroke-linecap="round" stroke-linejoin="round"/>
    <line x1="10" y1="11" x2="10" y2="17" stroke="currentColor" stroke-width="1.8" stroke-linecap="round"/>
    <line x1="14" y1="11" x2="14" y2="17" stroke="currentColor" stroke-width="1.8" stroke-linecap="round"/>
  </symbol>

  <symbol id="icon-download" viewBox="0 0 24 24">
    <path d="M21 15v4a2 2 0 0 1-2 2H5a2 2 0 0 1-2-2v-4" fill="none" stroke="currentColor" stroke-width="1.8" stroke-linecap="round" stroke-linejoin="round"/>
    <polyline points="7 10 12 15 17 10" fill="none" stroke="currentColor" stroke-width="1.8" stroke-linecap="round" stroke-linejoin="round"/>
    <line x1="12" y1="15" x2="12" y2="3" stroke="currentColor" stroke-width="1.8" stroke-linecap="round"/>
  </symbol>

  <symbol id="icon-upload" viewBox="0 0 24 24">
    <path d="M21 15v4a2 2 0 0 1-2 2H5a2 2 0 0 1-2-2v-4" fill="none" stroke="currentColor" stroke-width="1.8" stroke-linecap="round" stroke-linejoin="round"/>
    <polyline points="17 8 12 3 7 8" fill="none" stroke="currentColor" stroke-width="1.8" stroke-linecap="round" stroke-linejoin="round"/>
    <line x1="12" y1="3" x2="12" y2="15" stroke="currentColor" stroke-width="1.8" stroke-linecap="round"/>
  </symbol>

  <symbol id="icon-share" viewBox="0 0 24 24">
    <circle cx="18" cy="5" r="3" fill="none" stroke="currentColor" stroke-width="1.8" stroke-linecap="round"/>
    <circle cx="6" cy="12" r="3" fill="none" stroke="currentColor" stroke-width="1.8" stroke-linecap="round"/>
    <circle cx="18" cy="19" r="3" fill="none" stroke="currentColor" stroke-width="1.8" stroke-linecap="round"/>
    <line x1="8.59" y1="13.51" x2="15.42" y2="17.49" stroke="currentColor" stroke-width="1.8" stroke-linecap="round"/>
    <line x1="15.41" y1="6.51" x2="8.59" y2="10.49" stroke="currentColor" stroke-width="1.8" stroke-linecap="round"/>
  </symbol>

  <!-- STATUS ICONS (5) -->
  <symbol id="icon-check" viewBox="0 0 24 24">
    <polyline points="20 6 9 17 4 12" fill="none" stroke="currentColor" stroke-width="1.8" stroke-linecap="round" stroke-linejoin="round"/>
  </symbol>

  <symbol id="icon-success" viewBox="0 0 24 24">
    <circle cx="12" cy="12" r="10" fill="none" stroke="currentColor" stroke-width="1.8" stroke-linecap="round"/>
    <polyline points="16 12 12 8 8 12" fill="none" stroke="currentColor" stroke-width="1.8" stroke-linecap="round" stroke-linejoin="round"/>
  </symbol>

  <symbol id="icon-warning" viewBox="0 0 24 24">
    <path d="M10.29 3.86L1.82 18a2 2 0 0 0 1.71 3h16.94a2 2 0 0 0 1.71-3L13.71 3.86a2 2 0 0 0-3.42 0z" fill="none" stroke="currentColor" stroke-width="1.8" stroke-linecap="round" stroke-linejoin="round"/>
    <line x1="12" y1="9" x2="12" y2="13" stroke="currentColor" stroke-width="1.8" stroke-linecap="round"/>
    <line x1="12" y1="17" x2="12.01" y2="17" stroke="currentColor" stroke-width="1.8" stroke-linecap="round"/>
  </symbol>

  <symbol id="icon-error" viewBox="0 0 24 24">
    <circle cx="12" cy="12" r="10" fill="none" stroke="currentColor" stroke-width="1.8" stroke-linecap="round"/>
    <line x1="12" y1="8" x2="12" y2="12" stroke="currentColor" stroke-width="1.8" stroke-linecap="round"/>
    <line x1="12" y1="16" x2="12.01" y2="16" stroke="currentColor" stroke-width="1.8" stroke-linecap="round"/>
  </symbol>

  <symbol id="icon-info" viewBox="0 0 24 24">
    <circle cx="12" cy="12" r="10" fill="none" stroke="currentColor" stroke-width="1.8" stroke-linecap="round"/>
    <line x1="12" y1="16" x2="12" y2="12" stroke="currentColor" stroke-width="1.8" stroke-linecap="round"/>
    <line x1="12" y1="8" x2="12.01" y2="8" stroke="currentColor" stroke-width="1.8" stroke-linecap="round"/>
  </symbol>

  <!-- CONTACT ICONS (4) -->
  <symbol id="icon-phone" viewBox="0 0 24 24">
    <path d="M22 16.92v3a2 2 0 0 1-2.18 2 19.79 19.79 0 0 1-8.63-3.07 19.5 19.5 0 0 1-6-6 19.79 19.79 0 0 1-3.07-8.67A2 2 0 0 1 4.11 2h3a2 2 0 0 1 2 1.72 12.84 12.84 0 0 0 .7 2.81 2 2 0 0 1-.45 2.11L8.09 9.91a16 16 0 0 0 6 6l1.27-1.27a2 2 0 0 1 2.11-.45 12.84 12.84 0 0 0 2.81.7A2 2 0 0 1 22 16.92z" fill="none" stroke="currentColor" stroke-width="1.8" stroke-linecap="round" stroke-linejoin="round"/>
  </symbol>

  <symbol id="icon-mail" viewBox="0 0 24 24">
    <rect x="2" y="4" width="20" height="16" rx="2" fill="none" stroke="currentColor" stroke-width="1.8" stroke-linecap="round"/>
    <path d="M2 6l10 7.5L22 6" fill="none" stroke="currentColor" stroke-width="1.8" stroke-linecap="round" stroke-linejoin="round"/>
  </symbol>

  <symbol id="icon-location" viewBox="0 0 24 24">
    <path d="M21 10c0 7-9 13-9 13s-9-6-9-13a9 9 0 0 1 18 0z" fill="none" stroke="currentColor" stroke-width="1.8" stroke-linecap="round" stroke-linejoin="round"/>
    <circle cx="12" cy="10" r="3" fill="none" stroke="currentColor" stroke-width="1.8" stroke-linecap="round"/>
  </symbol>

  <symbol id="icon-clock-time" viewBox="0 0 24 24">
    <circle cx="12" cy="12" r="10" fill="none" stroke="currentColor" stroke-width="1.8" stroke-linecap="round"/>
    <polyline points="12 6 12 12 16 14" fill="none" stroke="currentColor" stroke-width="1.8" stroke-linecap="round" stroke-linejoin="round"/>
  </symbol>

  <!-- INTEGRATION ICONS (8) -->
  <symbol id="icon-cloud" viewBox="0 0 24 24">
    <path d="M18 10h-1.26A8 8 0 1 0 9 20h9a5 5 0 0 0 0-10z" fill="none" stroke="currentColor" stroke-width="1.8" stroke-linecap="round" stroke-linejoin="round"/>
  </symbol>

  <symbol id="icon-server" viewBox="0 0 24 24">
    <rect x="2" y="2" width="20" height="8" rx="2" ry="2" fill="none" stroke="currentColor" stroke-width="1.8" stroke-linecap="round"/>
    <rect x="2" y="14" width="20" height="8" rx="2" ry="2" fill="none" stroke="currentColor" stroke-width="1.8" stroke-linecap="round"/>
    <line x1="6" y1="6" x2="6" y2="6.01" stroke="currentColor" stroke-width="1.8" stroke-linecap="round"/>
    <line x1="6" y1="18" x2="6" y2="18.01" stroke="currentColor" stroke-width="1.8" stroke-linecap="round"/>
  </symbol>

  <symbol id="icon-refresh" viewBox="0 0 24 24">
    <polyline points="23 4 23 10 17 10" fill="none" stroke="currentColor" stroke-width="1.8" stroke-linecap="round" stroke-linejoin="round"/>
    <path d="M20.49 15a9 9 0 1 1-2-8.83" fill="none" stroke="currentColor" stroke-width="1.8" stroke-linecap="round" stroke-linejoin="round"/>
  </symbol>

  <symbol id="icon-sync" viewBox="0 0 24 24">
    <circle cx="12" cy="12" r="1" fill="currentColor"/>
    <path d="M12 1v6m0 6v6M4.22 4.22l4.24 4.24m5.08 0l4.24-4.24M4.22 19.78l4.24-4.24m5.08 0l4.24 4.24" fill="none" stroke="currentColor" stroke-width="1.8" stroke-linecap="round"/>
  </symbol>

  <symbol id="icon-team" viewBox="0 0 24 24">
    <path d="M17 21v-2a4 4 0 0 0-4-4H5a4 4 0 0 0-4 4v2" fill="none" stroke="currentColor" stroke-width="1.8" stroke-linecap="round" stroke-linejoin="round"/>
    <circle cx="9" cy="7" r="4" fill="none" stroke="currentColor" stroke-width="1.8" stroke-linecap="round"/>
    <path d="M23 21v-2a4 4 0 0 0-3-3.87" fill="none" stroke="currentColor" stroke-width="1.8" stroke-linecap="round" stroke-linejoin="round"/>
    <path d="M16 3.13a4 4 0 0 1 0 7.75" fill="none" stroke="currentColor" stroke-width="1.8" stroke-linecap="round" stroke-linejoin="round"/>
  </symbol>

  <symbol id="icon-dashboard" viewBox="0 0 24 24">
    <rect x="3" y="3" width="7" height="7" fill="none" stroke="currentColor" stroke-width="1.8" stroke-linecap="round"/>
    <rect x="14" y="3" width="7" height="7" fill="none" stroke="currentColor" stroke-width="1.8" stroke-linecap="round"/>
    <rect x="14" y="14" width="7" height="7" fill="none" stroke="currentColor" stroke-width="1.8" stroke-linecap="round"/>
    <rect x="3" y="14" width="7" height="7" fill="none" stroke="currentColor" stroke-width="1.8" stroke-linecap="round"/>
  </symbol>

  <!-- ADDITIONAL UTILITY ICONS -->
  <symbol id="icon-arrow-right" viewBox="0 0 24 24">
    <line x1="5" y1="12" x2="19" y2="12" stroke="currentColor" stroke-width="1.8" stroke-linecap="round"/>
    <polyline points="12 5 19 12 12 19" fill="none" stroke="currentColor" stroke-width="1.8" stroke-linecap="round" stroke-linejoin="round"/>
  </symbol>

  <symbol id="icon-chevron-down" viewBox="0 0 24 24">
    <polyline points="6 9 12 15 18 9" fill="none" stroke="currentColor" stroke-width="1.8" stroke-linecap="round" stroke-linejoin="round"/>
  </symbol>

  <symbol id="icon-chevron-right" viewBox="0 0 24 24">
    <polyline points="9 18 15 12 9 6" fill="none" stroke="currentColor" stroke-width="1.8" stroke-linecap="round" stroke-linejoin="round"/>
  </symbol>

  <symbol id="icon-search" viewBox="0 0 24 24">
    <circle cx="11" cy="11" r="8" fill="none" stroke="currentColor" stroke-width="1.8" stroke-linecap="round"/>
    <line x1="21" y1="21" x2="16.65" y2="16.65" stroke="currentColor" stroke-width="1.8" stroke-linecap="round"/>
  </symbol>

  <symbol id="icon-menu" viewBox="0 0 24 24">
    <line x1="3" y1="6" x2="21" y2="6" stroke="currentColor" stroke-width="1.8" stroke-linecap="round"/>
    <line x1="3" y1="12" x2="21" y2="12" stroke="currentColor" stroke-width="1.8" stroke-linecap="round"/>
    <line x1="3" y1="18" x2="21" y2="18" stroke="currentColor" stroke-width="1.8" stroke-linecap="round"/>
  </symbol>

  <symbol id="icon-close" viewBox="0 0 24 24">
    <line x1="18" y1="6" x2="6" y2="18" stroke="currentColor" stroke-width="1.8" stroke-linecap="round"/>
    <line x1="6" y1="6" x2="18" y2="18" stroke="currentColor" stroke-width="1.8" stroke-linecap="round"/>
  </symbol>

  <symbol id="icon-loading" viewBox="0 0 24 24">
    <circle cx="12" cy="12" r="10" fill="none" stroke="currentColor" stroke-width="1.8" opacity="0.3"/>
    <path d="M22 12a10 10 0 0 1-10 10" fill="none" stroke="currentColor" stroke-width="1.8" stroke-linecap="round"/>
  </symbol>

  <symbol id="icon-notification" viewBox="0 0 24 24">
    <path d="M18 8A6 6 0 0 0 6 8c0 7-3 9-3 9h18s-3-2-3-9" fill="none" stroke="currentColor" stroke-width="1.8" stroke-linecap="round" stroke-linejoin="round"/>
    <path d="M13.73 21a2 2 0 0 1-3.46 0" fill="none" stroke="currentColor" stroke-width="1.8" stroke-linecap="round" stroke-linejoin="round"/>
  </symbol>

  <symbol id="icon-copy" viewBox="0 0 24 24">
    <rect x="9" y="9" width="13" height="13" rx="2" ry="2" fill="none" stroke="currentColor" stroke-width="1.8" stroke-linecap="round"/>
    <path d="M5 15H4a2 2 0 0 1-2-2V4a2 2 0 0 1 2-2h9a2 2 0 0 1 2 2v1" fill="none" stroke="currentColor" stroke-width="1.8" stroke-linecap="round"/>
  </symbol>

  <symbol id="icon-back" viewBox="0 0 24 24">
    <line x1="19" y1="12" x2="5" y2="12" stroke="currentColor" stroke-width="1.8" stroke-linecap="round"/>
    <polyline points="12 19 5 12 12 5" fill="none" stroke="currentColor" stroke-width="1.8" stroke-linecap="round" stroke-linejoin="round"/>
  </symbol>

  <!-- ADDITIONAL MINI APP ICONS -->
  <symbol id="icon-checkmark-circle" viewBox="0 0 24 24">
    <circle cx="12" cy="12" r="10" fill="none" stroke="currentColor" stroke-width="1.8" stroke-linecap="round"/>
    <polyline points="8 12 11 15 16 10" fill="none" stroke="currentColor" stroke-width="1.8" stroke-linecap="round" stroke-linejoin="round"/>
  </symbol>

  <symbol id="icon-x-circle" viewBox="0 0 24 24">
    <circle cx="12" cy="12" r="10" fill="none" stroke="currentColor" stroke-width="1.8" stroke-linecap="round"/>
    <line x1="15" y1="9" x2="9" y2="15" stroke="currentColor" stroke-width="1.8" stroke-linecap="round"/>
    <line x1="9" y1="9" x2="15" y2="15" stroke="currentColor" stroke-width="1.8" stroke-linecap="round"/>
  </symbol>

  <symbol id="icon-alert-triangle" viewBox="0 0 24 24">
    <path d="M10.29 3.86L1.82 18a2 2 0 0 0 1.71 3h16.94a2 2 0 0 0 1.71-3L13.71 3.86a2 2 0 0 0-3.42 0z" fill="none" stroke="currentColor" stroke-width="1.8" stroke-linecap="round" stroke-linejoin="round"/>
    <line x1="12" y1="9" x2="12" y2="13" stroke="currentColor" stroke-width="1.8" stroke-linecap="round"/>
    <line x1="12" y1="17" x2="12.01" y2="17" stroke="currentColor" stroke-width="1.8" stroke-linecap="round"/>
  </symbol>

  <symbol id="icon-rotate-cw" viewBox="0 0 24 24">
    <polyline points="23 4 23 10 17 10" fill="none" stroke="currentColor" stroke-width="1.8" stroke-linecap="round" stroke-linejoin="round"/>
    <path d="M20.49 15a9 9 0 1 1-2-8.83" fill="none" stroke="currentColor" stroke-width="1.8" stroke-linecap="round" stroke-linejoin="round"/>
  </symbol>

  <symbol id="icon-inbox" viewBox="0 0 24 24">
    <path d="M22 12h-6l-2 3h-4l-2-3H2" fill="none" stroke="currentColor" stroke-width="1.8" stroke-linecap="round" stroke-linejoin="round"/>
    <path d="M2 5a2 2 0 0 1 2-2h16a2 2 0 0 1 2 2v10a2 2 0 0 1-2 2H4a2 2 0 0 1-2-2z" fill="none" stroke="currentColor" stroke-width="1.8" stroke-linecap="round" stroke-linejoin="round"/>
  </symbol>

  <symbol id="icon-send" viewBox="0 0 24 24">
    <line x1="22" y1="2" x2="11" y2="13" stroke="currentColor" stroke-width="1.8" stroke-linecap="round" stroke-linejoin="round"/>
    <polygon points="22 2 15 22 11 13 2 9 22 2" fill="none" stroke="currentColor" stroke-width="1.8" stroke-linecap="round" stroke-linejoin="round"/>
  </symbol>

  <symbol id="icon-wrench" viewBox="0 0 24 24">
    <path d="M14.7 6.3a1 1 0 0 0 0 1.4l1.6 1.6a1 1 0 0 0 1.4 0l3.77-3.77a6 6 0 0 1-7.94 7.94l-6.91 6.91a2.12 2.12 0 1 1-3-3l6.91-6.91a6 6 0 0 1 7.94-7.94l-3.76 3.76z" fill="none" stroke="currentColor" stroke-width="1.8" stroke-linecap="round" stroke-linejoin="round"/>
  </symbol>

  <symbol id="icon-smartphone" viewBox="0 0 24 24">
    <rect x="5" y="2" width="14" height="20" rx="2" ry="2" fill="none" stroke="currentColor" stroke-width="1.8" stroke-linecap="round"/>
    <line x1="12" y1="18" x2="12.01" y2="18" stroke="currentColor" stroke-width="1.8" stroke-linecap="round"/>
  </symbol>

  <symbol id="icon-target" viewBox="0 0 24 24">
    <circle cx="12" cy="12" r="1" fill="currentColor"/>
    <circle cx="12" cy="12" r="5" fill="none" stroke="currentColor" stroke-width="1.8" stroke-linecap="round"/>
    <circle cx="12" cy="12" r="9" fill="none" stroke="currentColor" stroke-width="1.8" stroke-linecap="round"/>
  </symbol>

  <symbol id="icon-eye" viewBox="0 0 24 24">
    <path d="M1 12s4-8 11-8 11 8 11 8-4 8-11 8-11-8-11-8z" fill="none" stroke="currentColor" stroke-width="1.8" stroke-linecap="round" stroke-linejoin="round"/>
    <circle cx="12" cy="12" r="3" fill="none" stroke="currentColor" stroke-width="1.8" stroke-linecap="round"/>
  </symbol>

  <symbol id="icon-folder" viewBox="0 0 24 24">
    <path d="M22 19a2 2 0 0 1-2 2H4a2 2 0 0 1-2-2V5a2 2 0 0 1 2-2h5l2 3h9a2 2 0 0 1 2 2z" fill="none" stroke="currentColor" stroke-width="1.8" stroke-linecap="round" stroke-linejoin="round"/>
  </symbol>

  <!-- ADDITIONAL REQUIRED ICONS -->
  <symbol id="icon-users" viewBox="0 0 24 24">
    <path d="M17 21v-2a4 4 0 0 0-4-4H5a4 4 0 0 0-4 4v2" fill="none" stroke="currentColor" stroke-width="1.8" stroke-linecap="round" stroke-linejoin="round"/>
    <circle cx="9" cy="7" r="4" fill="none" stroke="currentColor" stroke-width="1.8" stroke-linecap="round"/>
    <path d="M23 21v-2a4 4 0 0 0-3-3.87" fill="none" stroke="currentColor" stroke-width="1.8" stroke-linecap="round" stroke-linejoin="round"/>
    <path d="M16 3.13a4 4 0 0 1 0 7.75" fill="none" stroke="currentColor" stroke-width="1.8" stroke-linecap="round" stroke-linejoin="round"/>
  </symbol>

  <symbol id="icon-shield" viewBox="0 0 24 24">
    <path d="M12 22s-8-4-8-11V5l8-3 8 3v6c0 7-8 11-8 11z" fill="none" stroke="currentColor" stroke-width="1.8" stroke-linecap="round" stroke-linejoin="round"/>
    <polyline points="9 12 12 15 15 10" fill="none" stroke="currentColor" stroke-width="1.8" stroke-linecap="round" stroke-linejoin="round"/>
  </symbol>

  <symbol id="icon-calendar" viewBox="0 0 24 24">
    <rect x="3" y="4" width="18" height="18" rx="2" ry="2" fill="none" stroke="currentColor" stroke-width="1.8" stroke-linecap="round"/>
    <line x1="16" y1="2" x2="16" y2="6" stroke="currentColor" stroke-width="1.8" stroke-linecap="round"/>
    <line x1="8" y1="2" x2="8" y2="6" stroke="currentColor" stroke-width="1.8" stroke-linecap="round"/>
    <line x1="3" y1="10" x2="21" y2="10" stroke="currentColor" stroke-width="1.8" stroke-linecap="round"/>
  </symbol>

  <symbol id="icon-clipboard" viewBox="0 0 24 24">
    <path d="M16 4h2a2 2 0 0 1 2 2v14a2 2 0 0 1-2 2H6a2 2 0 0 1-2-2V6a2 2 0 0 1 2-2h2" fill="none" stroke="currentColor" stroke-width="1.8" stroke-linecap="round" stroke-linejoin="round"/>
    <rect x="9" y="2" width="6" height="4" rx="1" ry="1" fill="none" stroke="currentColor" stroke-width="1.8" stroke-linecap="round"/>
    <line x1="9" y1="11" x2="15" y2="11" stroke="currentColor" stroke-width="1.8" stroke-linecap="round"/>
    <line x1="9" y1="16" x2="15" y2="16" stroke="currentColor" stroke-width="1.8" stroke-linecap="round"/>
  </symbol>

  <symbol id="icon-package" viewBox="0 0 24 24">
    <line x1="16.5" y1="9.4" x2="7.5" y2="4.21" stroke="currentColor" stroke-width="1.8" stroke-linecap="round" stroke-linejoin="round"/>
    <path d="M21 16V8a2 2 0 0 0-1-1.73l-7-4a2 2 0 0 0-2 0l-7 4A2 2 0 0 0 3 8v8a2 2 0 0 0 1 1.73l7 4a2 2 0 0 0 2 0l7-4A2 2 0 0 0 21 16z" fill="none" stroke="currentColor" stroke-width="1.8" stroke-linecap="round" stroke-linejoin="round"/>
    <polyline points="3.27 6.96 12 12.01 20.73 6.96" fill="none" stroke="currentColor" stroke-width="1.8" stroke-linecap="round" stroke-linejoin="round"/>
    <line x1="12" y1="22.08" x2="12" y2="12" stroke="currentColor" stroke-width="1.8" stroke-linecap="round" stroke-linejoin="round"/>
  </symbol>

  <symbol id="icon-checkmark" viewBox="0 0 24 24">
    <polyline points="20 6 9 17 4 12" fill="none" stroke="currentColor" stroke-width="1.8" stroke-linecap="round" stroke-linejoin="round"/>
  </symbol>
</svg>
